<svg width="113" height="113" viewBox="0 0 113 113" fill="none" xmlns="http://www.w3.org/2000/svg">
<circle cx="56.0156" cy="56.0156" r="56.0156" fill="#4C8AE1"/>
<g clip-path="url(#clip0_1274_2776)">
<path d="M25.3774 53.2773C23.9834 56.547 23.217 60.1005 23.217 63.8166C23.217 67.5327 23.978 71.0609 25.3629 74.3197C20.1675 73.6473 16.1406 69.1847 16.1406 63.7985C16.1406 58.4123 20.1747 53.9425 25.3774 53.2773Z" fill="white"/>
<path d="M96.1868 63.7987C96.1868 69.1488 92.2159 73.5879 87.0709 74.3036C88.4541 71.0502 89.2115 67.513 89.2115 63.8168C89.2115 60.1205 88.4487 56.5562 87.0547 53.292C92.2068 54.0023 96.1868 58.445 96.1868 63.7987Z" fill="white"/>
<path d="M83.4485 36.3105V49.2627L82.9093 49.2049L71.8403 48.0102C66.4826 47.4318 61.0906 47.1426 55.6968 47.1426C49.8413 47.1426 43.984 47.4824 38.1719 48.1656L29.541 49.1778L28.8828 49.2555V36.5166L37.9681 39.0235L39.894 39.5531L55.273 43.797C55.3361 43.8151 55.401 43.8223 55.466 43.8223C55.5273 43.8223 55.5904 43.8151 55.6517 43.7988L72.1685 39.3489L74.1342 38.8193L83.4485 36.3105Z" fill="white"/>
<path d="M99.648 29.4259L84.8894 33.4023L84.168 33.5975L83.4467 33.7909L72.3345 36.7859L70.2282 37.3516L55.466 41.3298L41.775 37.5522L39.7191 36.9847L28.881 33.9952L28.1597 33.7963L27.4384 33.5957L12.375 29.4404L55.4642 21.043L99.648 29.4259Z" fill="white"/>
<path d="M84.8007 53.3547C84.7772 53.3005 84.752 53.2462 84.7267 53.1938C84.6474 53.0203 84.5662 52.8468 84.4833 52.6751C84.4508 52.61 84.4184 52.5449 84.3877 52.4799C84.3084 52.3208 84.2272 52.1618 84.1461 52.0045C84.1064 51.9286 84.0649 51.8527 84.0234 51.7768C83.9621 51.6611 83.9008 51.5472 83.8377 51.4334L71.6831 50.1212C60.6124 48.9264 49.3938 48.977 38.3375 50.2748L28.5994 51.4189C28.5309 51.54 28.4641 51.6629 28.401 51.784C28.3848 51.8147 28.3686 51.8437 28.3523 51.8744C28.2441 52.0768 28.1395 52.2792 28.0385 52.4853C28.0259 52.5088 28.0151 52.5341 28.0025 52.5576C27.8979 52.7709 27.7987 52.9805 27.7013 53.1956C27.6923 53.2137 27.6833 53.2336 27.6743 53.2517C26.1649 56.5611 25.375 60.1344 25.375 63.8162C25.375 67.498 26.1649 71.0713 27.6743 74.3808L27.6851 74.4025C27.7879 74.6266 27.8925 74.8507 28.0025 75.0748C28.0097 75.0875 28.0151 75.1019 28.0223 75.1146C28.1287 75.3315 28.2387 75.5448 28.3523 75.758C28.3631 75.7779 28.3722 75.796 28.383 75.8159C29.8617 78.5976 31.8689 81.1659 34.3539 83.4144C40.1859 88.6958 47.9493 91.604 56.214 91.604C64.4788 91.604 72.2422 88.6958 78.0742 83.4144C80.5592 81.1659 82.5609 78.603 84.0415 75.8231C84.0775 75.758 84.1118 75.693 84.1461 75.6279C84.2344 75.458 84.3192 75.2881 84.4039 75.1182C84.431 75.064 84.4562 75.0116 84.4833 74.9573C84.5717 74.773 84.6582 74.5904 84.743 74.4043C84.7628 74.3627 84.7808 74.3193 84.8007 74.2777C86.2794 70.999 87.0531 67.4582 87.0531 63.8162C87.0531 60.1742 86.2794 56.6334 84.8007 53.3547ZM43.2931 60.6206H43.2786C40.2742 60.6206 37.8487 63.5505 37.8235 63.5794C37.3204 64.1958 36.4115 64.2898 35.7947 63.7873C35.178 63.2848 35.0824 62.3775 35.5819 61.7575C35.7154 61.593 38.8839 57.7269 43.2786 57.7269C45.9169 57.7269 48.3478 59.0825 50.5046 61.7575C51.006 62.3793 50.9086 63.2884 50.29 63.7909C50.0231 64.0078 49.7021 64.1126 49.3848 64.1126C48.9646 64.1126 48.5462 63.9301 48.2613 63.5758C46.6833 61.6202 45.0116 60.6243 43.2931 60.6206ZM63.5014 77.6559C63.3751 77.824 60.3437 81.7769 55.9796 81.8437C55.9417 81.8437 55.9021 81.8437 55.8624 81.8437C53.2259 81.8437 50.7643 80.4466 48.548 77.6902C48.0485 77.0685 48.1459 76.1575 48.7662 75.6568C49.3866 75.1562 50.2954 75.2538 50.795 75.8755C52.4577 77.9433 54.1853 78.9844 55.9345 78.9518C58.8577 78.9066 61.1768 75.9406 61.1985 75.9117C61.68 75.2755 62.5835 75.1489 63.22 75.6297C63.8548 76.1105 63.981 77.0178 63.5014 77.6559ZM76.4332 63.7909C76.1663 64.0078 75.8453 64.1126 75.5279 64.1126C75.1077 64.1126 74.6893 63.9301 74.4044 63.5758C72.8265 61.6202 71.1548 60.6243 69.4362 60.6206H69.4217C66.4174 60.6206 63.9919 63.5505 63.9666 63.5794C63.4635 64.1958 62.5546 64.2898 61.9379 63.7873C61.3211 63.2848 61.2255 62.3775 61.7251 61.7575C61.8585 61.593 65.027 57.7269 69.4217 57.7269C72.06 57.7269 74.4909 59.0825 76.6478 61.7575C77.1491 62.3793 77.0517 63.2884 76.4332 63.7909Z" fill="white"/>
</g>
<defs>
<clipPath id="clip0_1274_2776">
<rect width="87.273" height="70.5611" fill="white" transform="translate(12.375 21.043)"/>
</clipPath>
</defs>
</svg>