<svg width="289" height="289" viewBox="0 0 289 289" fill="none" xmlns="http://www.w3.org/2000/svg">
<circle cx="143.5" cy="144.085" r="120.5" fill="white"/>
<path d="M72.045 216.127C83.8924 227.974 98.4788 236.717 114.512 241.581C130.545 246.445 147.531 247.279 163.964 244.01C180.397 240.742 195.77 233.471 208.721 222.842C221.673 212.212 231.803 198.553 238.215 183.074C244.627 167.594 247.122 150.773 245.48 134.098C243.838 117.424 238.109 101.413 228.8 87.4815C219.492 73.5504 206.891 62.13 192.115 54.2318C177.338 46.3336 160.842 42.2016 144.087 42.2016L144.087 144.085L72.045 216.127Z" fill="#4C8AE1"/>
<path d="M144.087 42.2015C123.937 42.2015 104.239 48.1768 87.484 59.3719C70.7294 70.5669 57.6708 86.4789 49.9595 105.096C42.2482 123.712 40.2305 144.198 44.1617 163.961C48.0929 183.724 57.7963 201.878 72.045 216.127L144.087 144.085L144.087 42.2015Z" fill="#4C8AE1" fill-opacity="0.2"/>
</svg>