<svg width="155" height="36" viewBox="0 0 155 36" fill="none" xmlns="http://www.w3.org/2000/svg">
<path d="M60.7735 10.4994V25.7064H56.8408V23.785C56.3388 24.4438 55.6787 24.9653 54.8605 25.3496C54.061 25.7156 53.1871 25.8986 52.2387 25.8986C51.0301 25.8986 49.961 25.6515 49.0312 25.1574C48.1015 24.6451 47.3671 23.9039 46.8278 22.934C46.3072 21.9459 46.0469 20.7747 46.0469 19.4205V10.4994H49.9517V18.8715C49.9517 20.0793 50.2585 21.0126 50.8721 21.6714C51.4857 22.3118 52.3224 22.6321 53.3823 22.6321C54.4608 22.6321 55.3068 22.3118 55.9204 21.6714C56.534 21.0126 56.8408 20.0793 56.8408 18.8715V10.4994H60.7735Z" fill="#1B3252"/>
<path d="M73.1888 10.2798C75.0297 10.2798 76.5172 10.8563 77.6514 12.0091C78.7857 13.1437 79.3528 14.7358 79.3528 16.7853V25.7064H75.448V17.3069C75.448 16.0991 75.1412 15.175 74.5276 14.5345C73.914 13.8757 73.0773 13.5463 72.0174 13.5463C70.9389 13.5463 70.0836 13.8757 69.4514 14.5345C68.8378 15.175 68.531 16.0991 68.531 17.3069V25.7064H64.6262V10.4994H68.531V12.3934C69.0516 11.7346 69.7117 11.2223 70.5113 10.8563C71.3294 10.472 72.2219 10.2798 73.1888 10.2798Z" fill="#1B3252"/>
<path d="M85.0464 8.68775C84.3584 8.68775 83.7819 8.47731 83.3171 8.05641C82.8708 7.61722 82.6477 7.07738 82.6477 6.43689C82.6477 5.79641 82.8708 5.26571 83.3171 4.84482C83.7819 4.40563 84.3584 4.18604 85.0464 4.18604C85.7343 4.18604 86.3015 4.40563 86.7477 4.84482C87.2126 5.26571 87.445 5.79641 87.445 6.43689C87.445 7.07738 87.2126 7.61722 86.7477 8.05641C86.3015 8.47731 85.7343 8.68775 85.0464 8.68775ZM86.9709 10.4994V25.7064H83.0661V10.4994H86.9709Z" fill="#1B3252"/>
<path d="M110.018 10.2798C111.915 10.2798 113.439 10.8563 114.592 12.0091C115.764 13.1437 116.349 14.7358 116.349 16.7853V25.7064H112.445V17.3069C112.445 16.1174 112.138 15.2116 111.524 14.5894C110.911 13.9489 110.074 13.6287 109.014 13.6287C107.954 13.6287 107.108 13.9489 106.476 14.5894C105.862 15.2116 105.555 16.1174 105.555 17.3069V25.7064H101.651V17.3069C101.651 16.1174 101.344 15.2116 100.73 14.5894C100.117 13.9489 99.2799 13.6287 98.22 13.6287C97.1415 13.6287 96.2862 13.9489 95.654 14.5894C95.0404 15.2116 94.7336 16.1174 94.7336 17.3069V25.7064H90.8288V10.4994H94.7336V12.3385C95.2356 11.698 95.8771 11.1948 96.6581 10.8288C97.4576 10.4628 98.3316 10.2798 99.2799 10.2798C100.488 10.2798 101.567 10.536 102.515 11.0484C103.464 11.5425 104.198 12.2562 104.719 13.1895C105.221 12.3111 105.946 11.6065 106.894 11.0759C107.861 10.5452 108.902 10.2798 110.018 10.2798Z" fill="#1B3252"/>
<path d="M119.051 18.048C119.051 16.5109 119.357 15.1475 119.971 13.9581C120.603 12.7686 121.449 11.8536 122.509 11.2131C123.588 10.5726 124.787 10.2524 126.107 10.2524C127.26 10.2524 128.264 10.4811 129.119 10.9386C129.993 11.3961 130.691 11.9725 131.211 12.6679V10.4994H135.144V25.7064H131.211V23.483C130.709 24.1967 130.012 24.7914 129.119 25.2672C128.246 25.7247 127.232 25.9535 126.079 25.9535C124.778 25.9535 123.588 25.6241 122.509 24.9653C121.449 24.3065 120.603 23.3824 119.971 22.1929C119.357 20.9851 119.051 19.6035 119.051 18.048ZM131.211 18.1029C131.211 17.1696 131.025 16.3736 130.653 15.7148C130.282 15.0377 129.78 14.5253 129.147 14.1776C128.515 13.8117 127.836 13.6287 127.111 13.6287C126.386 13.6287 125.717 13.8025 125.103 14.1502C124.489 14.4979 123.987 15.0103 123.597 15.6874C123.225 16.3462 123.039 17.133 123.039 18.048C123.039 18.963 123.225 19.7682 123.597 20.4636C123.987 21.1407 124.489 21.6622 125.103 22.0282C125.735 22.3942 126.405 22.5772 127.111 22.5772C127.836 22.5772 128.515 22.4033 129.147 22.0557C129.78 21.6897 130.282 21.1773 130.653 20.5185C131.025 19.8414 131.211 19.0362 131.211 18.1029Z" fill="#1B3252"/>
<path d="M137.954 18.048C137.954 16.5109 138.26 15.1475 138.874 13.9581C139.506 12.7686 140.362 11.8536 141.44 11.2131C142.518 10.5726 143.718 10.2524 145.038 10.2524C146.042 10.2524 147 10.472 147.911 10.9112C148.822 11.3321 149.547 11.8993 150.086 12.613V5.39381H154.047V25.7064H150.086V23.4556C149.603 24.2059 148.924 24.8097 148.05 25.2672C147.176 25.7247 146.163 25.9535 145.01 25.9535C143.708 25.9535 142.518 25.6241 141.44 24.9653C140.362 24.3065 139.506 23.3824 138.874 22.1929C138.26 20.9851 137.954 19.6035 137.954 18.048ZM150.114 18.1029C150.114 17.1696 149.928 16.3736 149.556 15.7148C149.184 15.0377 148.682 14.5253 148.05 14.1776C147.418 13.8117 146.739 13.6287 146.014 13.6287C145.289 13.6287 144.62 13.8025 144.006 14.1502C143.392 14.4979 142.89 15.0103 142.5 15.6874C142.128 16.3462 141.942 17.133 141.942 18.048C141.942 18.963 142.128 19.7682 142.5 20.4636C142.89 21.1407 143.392 21.6622 144.006 22.0282C144.638 22.3942 145.308 22.5772 146.014 22.5772C146.739 22.5772 147.418 22.4033 148.05 22.0557C148.682 21.6897 149.184 21.1773 149.556 20.5185C149.928 19.8414 150.114 19.0362 150.114 18.1029Z" fill="#1B3252"/>
<g clip-path="url(#clip0_630_44)">
<path d="M30.4452 0.153565L21.123 4.65209C20.3403 5.03041 19.8421 5.82253 19.8421 6.68558V26.7486L16.3256 24.5674L12.809 26.7486V6.98115C12.809 5.93484 12.2101 4.98312 11.2672 4.52795L2.50843 0.301348C1.35206 -0.260228 0 0.585092 0 1.86785V19.3536C0 28.2383 6.98566 35.7575 15.8927 35.988C24.7997 36.2186 32.6512 28.8531 32.6512 19.7201V1.5309C32.6512 0.40184 31.4651 -0.337076 30.4452 0.153565Z" fill="#1B3252"/>
</g>
<defs>
<clipPath id="clip0_630_44">
<rect width="32.6512" height="36" fill="white"/>
</clipPath>
</defs>
</svg>